<?xml version="1.0" encoding="utf-8"?>
<!-- Generator: Adobe Illustrator 26.5.0, SVG Export Plug-In . SVG Version: 6.00 Build 0)  -->
<svg version="1.1" id="Layer_1" xmlns="http://www.w3.org/2000/svg" xmlns:xlink="http://www.w3.org/1999/xlink" x="0px" y="0px"
	 viewBox="0 0 300 40" style="enable-background:new 0 0 300 40;" xml:space="preserve">
<style type="text/css">
	.st0{fill:#FFC271;}
	.st1{fill:#BFEFE9;}
</style>
<g>
	<path class="st0" d="M21.22,16.76v-1.73c0-0.03,0-0.06-0.07-0.09v-0.03c-0.04,0-0.07-0.03-0.11-0.03h-6.41v0.03H14.6v0.03v3.05
		v0.03l0.04,0.03h6.51c1.22,0,2.41,0.38,3.31,1.06h0.04l0.18,0.12c0.9,0.76,1.44,1.82,1.44,2.87v3.08c0,1.05-0.5,2.05-1.44,2.84
		c-0.94,0.76-2.23,1.2-3.53,1.2h-6.41c-1.3,0-2.56-0.44-3.49-1.17l-0.07-0.03h-0.04c-0.94-0.79-1.48-1.85-1.48-2.93v-1.73h4.93v1.73
		c0,0.03,0.04,0.06,0.07,0.09l0.04,0.03c0,0.03,0,0.03,0.04,0.03h6.41h0.04c0-0.03,0-0.03,0-0.03c0.04,0,0.04-0.03,0.04-0.03V22.1
		h-0.04v-0.06h-0.04h-6.51c-1.3,0-2.48-0.38-3.38-1.09l-0.14-0.09c-0.94-0.79-1.44-1.79-1.44-2.87v-3.05c0-1.08,0.5-2.08,1.44-2.87
		c0.97-0.76,2.19-1.17,3.53-1.17h6.41c1.33,0,2.59,0.41,3.53,1.14l0.04,0.03l0.04,0.06c0.94,0.76,1.48,1.79,1.48,2.9v1.73H21.22z"/>
	<path class="st0" d="M44.71,15.44v9.06c0,1.23-0.58,2.4-1.58,3.25l-0.07,0.09c-1.08,0.85-2.52,1.35-4.07,1.35h-4.89
		c-1.55,0-2.95-0.47-4.03-1.35h-0.04l-0.04-0.06c-1.08-0.88-1.69-2.08-1.69-3.31v-8.88c0-1.06,0.4-2.02,1.12-2.78
		c0.18-0.23,0.4-0.44,0.65-0.65v-0.03l0.07-0.06c1.08-0.85,2.45-1.29,3.96-1.29h5c1.44,0,2.84,0.47,3.85,1.26
		c0.25,0.21,0.47,0.44,0.68,0.67C44.35,13.51,44.71,14.45,44.71,15.44z M33.19,24.56l0.07,0.06c0,0.03,0.04,0.06,0.07,0.06
		c0.18,0.18,0.47,0.26,0.76,0.26h4.89c0.32,0,0.54-0.12,0.72-0.23l0.07-0.06c0-0.03,0.04-0.03,0.04-0.06v-9.15
		c0-0.12-0.07-0.29-0.18-0.41L39.56,15c-0.14-0.09-0.29-0.15-0.47-0.15h-5c-0.25,0-0.47,0.09-0.61,0.21v0.03h-0.04
		c-0.14,0.12-0.25,0.29-0.25,0.5V24.56z"/>
	<path class="st0" d="M58.7,17.67v-2.37c0-0.06-0.07-0.12-0.14-0.12h-6.44c-0.07,0-0.14,0.06-0.14,0.12v10.06
		c0,0.06,0.07,0.12,0.14,0.12h6.44c0.07,0,0.14-0.06,0.14-0.12v-2.4h4.89v2.78c0,1.03-0.58,1.99-1.58,2.7
		c-0.9,0.62-2.05,0.94-3.27,0.94h-6.62c-1.26,0-2.45-0.35-3.31-0.97l-0.04-0.03c-1.04-0.7-1.58-1.67-1.58-2.7V14.94
		c0-1.03,0.58-1.99,1.62-2.7c0.94-0.65,2.09-0.97,3.31-0.97h6.73c1.12,0,2.23,0.32,3.09,0.85l0.11,0.06
		c1.01,0.73,1.55,1.64,1.55,2.64v2.84H58.7z"/>
	<path class="st0" d="M70.24,11.13v18.09h-4.82V11.13H70.24z"/>
	<path class="st0" d="M90.86,28.98h-4.82l-1.15-3.34h-7.38l-1.15,3.34h-4.82l6.08-17.82h7.16L90.86,28.98z M78.8,21.89h4.82
		l-2.41-6.98h-0.04L78.8,21.89z"/>
	<path class="st0" d="M106.01,25.26v3.67H92.19V11.13h4.5v14.13H106.01z"/>
	<path class="st1" d="M124.93,15.35v9.2c0,1.23-0.58,2.4-1.66,3.34l-0.11,0.12c-1.12,0.88-2.66,1.41-4.25,1.41h-10.98V10.6
		l11.08-0.03c1.48,0,2.91,0.47,4.03,1.32l0.14,0.09C124.32,12.92,124.93,14.09,124.93,15.35z M113.24,25.12h5.69
		c0.18,0,0.36-0.06,0.47-0.18l0.07-0.06c0.11-0.06,0.14-0.2,0.14-0.32v-9.2c0-0.12-0.07-0.23-0.18-0.29L119.35,15
		c-0.07-0.09-0.18-0.12-0.32-0.12h-5.79V25.12z"/>
	<path class="st1" d="M131.8,11.13v18.09h-4.82V11.13H131.8z"/>
	<path class="st1" d="M146.05,16.76v-1.73c0-0.03,0-0.06-0.07-0.09v-0.03c-0.04,0-0.07-0.03-0.11-0.03h-6.41v0.03h-0.04v0.03v3.05
		v0.03l0.04,0.03h6.51c1.22,0,2.41,0.38,3.31,1.06h0.04l0.18,0.12c0.9,0.76,1.44,1.82,1.44,2.87v3.08c0,1.05-0.5,2.05-1.44,2.84
		c-0.94,0.76-2.23,1.2-3.53,1.2h-6.41c-1.3,0-2.56-0.44-3.49-1.17l-0.07-0.03h-0.04c-0.94-0.79-1.48-1.85-1.48-2.93v-1.73h4.93v1.73
		c0,0.03,0.04,0.06,0.07,0.09l0.04,0.03c0,0.03,0,0.03,0.04,0.03h6.41h0.04c0-0.03,0-0.03,0-0.03c0.04,0,0.04-0.03,0.04-0.03V22.1
		h-0.04v-0.06h-0.04h-6.51c-1.3,0-2.48-0.38-3.38-1.09l-0.14-0.09c-0.94-0.79-1.44-1.79-1.44-2.87v-3.05c0-1.08,0.5-2.08,1.44-2.87
		c0.97-0.76,2.19-1.17,3.53-1.17h6.41c1.33,0,2.59,0.41,3.53,1.14l0.04,0.03l0.04,0.06c0.94,0.76,1.47,1.79,1.47,2.9v1.73H146.05z"
		/>
	<path class="st1" d="M167.42,10.9v3.99h-5.25v14.34h-4.89V14.88h-5.22V10.9H167.42z"/>
	<path class="st1" d="M185.34,29.19h-5.25l-4.1-5.81h-2.38v5.81h-4.57V11.16h9.82c1.69,0,3.24,0.53,4.43,1.49
		c1.19,0.97,1.84,2.23,1.84,3.58v1.94c0,2.17-1.66,4.13-4.14,4.9L185.34,29.19z M180.05,19.22c0.36-0.26,0.54-0.65,0.54-1.06v-1.94
		c0-0.76-0.76-1.38-1.73-1.38h-5.25v4.84h5.15C179.22,19.69,179.69,19.52,180.05,19.22z"/>
	<path class="st1" d="M192.32,11.13v18.09h-4.82V11.13H192.32z"/>
	<path class="st1" d="M211.32,16.88c0,1.23-0.54,2.4-1.51,3.37c0.97,0.94,1.51,2.14,1.51,3.37v0.56c0,1.38-0.68,2.67-1.87,3.63
		l-0.07,0.06c-1.19,0.94-2.77,1.47-4.39,1.47h-9.93v-18.2h9.93c1.62,0,3.2,0.53,4.39,1.47l0.07,0.06c1.19,0.97,1.87,2.29,1.87,3.66
		V16.88z M206.1,17.9c0.32-0.29,0.5-0.65,0.5-1.03v-0.56c0-0.35-0.18-0.7-0.47-0.97l-0.11-0.06c-0.29-0.2-0.68-0.32-1.04-0.32h-5.22
		v3.34h1.51h0.04c0.58,0.03,1.19,0.03,1.76,0.03c0.68,0,1.26,0,1.8-0.03C205.31,18.31,205.74,18.17,206.1,17.9z M199.77,25.5h5.22
		c0.4,0,0.76-0.12,1.04-0.32h0.04l0.07-0.06c0.29-0.26,0.47-0.59,0.47-0.94v-0.56c0-0.41-0.18-0.76-0.5-1.03
		c-0.36-0.26-0.76-0.44-1.22-0.44h-5.11V25.5z"/>
	<path class="st1" d="M229.2,10.9v13.49c0,1.23-0.58,2.35-1.62,3.23c-1.04,0.85-2.45,1.32-3.92,1.32h-4.89
		c-1.51,0-2.92-0.47-3.96-1.35c-1.08-0.88-1.66-2.02-1.66-3.23V10.9h4.53v13.46c0,0.47,0.47,0.88,1.08,0.88h4.89
		c0.54,0,1.01-0.38,1.01-0.85V10.9H229.2z"/>
	<path class="st1" d="M246.69,10.9v3.99h-5.25v14.34h-4.89V14.88h-5.22V10.9H246.69z"/>
	<path class="st1" d="M253.59,11.13v18.09h-4.82V11.13H253.59z"/>
	<path class="st1" d="M272.56,15.44v9.06c0,1.23-0.58,2.4-1.58,3.25l-0.07,0.09c-1.08,0.85-2.52,1.35-4.07,1.35h-4.89
		c-1.55,0-2.95-0.47-4.03-1.35h-0.04l-0.03-0.06c-1.08-0.88-1.69-2.08-1.69-3.31v-8.88c0-1.06,0.4-2.02,1.11-2.78
		c0.18-0.23,0.4-0.44,0.65-0.65v-0.03l0.07-0.06c1.08-0.85,2.45-1.29,3.96-1.29h5c1.44,0,2.84,0.47,3.85,1.26
		c0.25,0.21,0.47,0.44,0.68,0.67C272.2,13.51,272.56,14.45,272.56,15.44z M261.04,24.56l0.07,0.06c0,0.03,0.04,0.06,0.07,0.06
		c0.18,0.18,0.47,0.26,0.76,0.26h4.89c0.32,0,0.54-0.12,0.72-0.23l0.07-0.06c0-0.03,0.04-0.03,0.04-0.06v-9.15
		c0-0.12-0.07-0.29-0.18-0.41L267.41,15c-0.14-0.09-0.29-0.15-0.47-0.15h-5c-0.25,0-0.47,0.09-0.61,0.21v0.03h-0.04
		c-0.14,0.12-0.25,0.29-0.25,0.5V24.56z"/>
	<path class="st1" d="M290.33,11.16v17.79h-4.39l-6.48-9.76v9.76h-4.5V11.16h4.43l6.48,9.76v-9.76H290.33z"/>
</g>
</svg>
