<?xml version="1.0" encoding="utf-8"?>
<!-- Generator: Adobe Illustrator 26.5.0, SVG Export Plug-In . SVG Version: 6.00 Build 0)  -->
<svg version="1.1" id="Layer_1" xmlns="http://www.w3.org/2000/svg" xmlns:xlink="http://www.w3.org/1999/xlink" x="0px" y="0px"
	 viewBox="0 0 300 300" style="enable-background:new 0 0 300 300;" xml:space="preserve">
<style type="text/css">
	.st0{fill:none;stroke:#43526B;stroke-width:0.1;stroke-miterlimit:10;}
</style>
<g>
	<path class="st0" d="M113.1,161.4c-12.1-15-11.2-34.1-11.2-50.7c0-3.6-0.1-23.7-0.1-23.7s77.9,0.4,79.1,0.4
		c9.1,0,15.8,5.4,20.4,11.9c3.4,4.9,3.8,5.2,3.9,12.7c0,3.3,4,4.9,6.3,2.5l49.7-41.3c2.6-2.7,0-7-3.5-6.1
		c-11.2,2.9-25.9,6.7-25.9,6.7c-11.2-13.5-28-21.6-45.9-21.5h-72.1c-32.1,0-58.9,15-58.9,57.6C54.9,135.6,64,150.1,113.1,161.4z"/>
</g>
<g>
	<path class="st0" d="M155.2,122c-15.5,0-28,12.6-28,28c-0.4,23.7,28.9,36.9,46.4,21.2C193.1,154.9,180.9,121.7,155.2,122z"/>
</g>
<g>
	<g>
		<path class="st0" d="M194.3,128.8c11.3,9.9,13.4,14.3,13.4,50.8c0,4.6-0.7,9.1-2.1,13.2c-5.3,11.5-16.8,19.3-30.1,19.3h-73.7
			v-33.8c0-3.3-3.9-4.9-6.3-2.6l-56.1,45.9c-2.7,2.7,0,7.2,3.6,6.1l25.6-11c0,12.1,5.1,30.1,27.2,30.1h100.8
			c32.1,0,58.7-25.6,58.9-57.6c0-0.6,0-1.8,0-2.4C255.5,160.9,245.5,141.9,194.3,128.8z"/>
	</g>
</g>
</svg>
